<svg width="96" height="96" viewBox="0 0 96 96" fill="none" xmlns="http://www.w3.org/2000/svg">
<path d="M91.9998 48V48.13C91.9741 56.8213 89.375 65.3102 84.5303 72.526C79.6857 79.7418 72.8126 85.3612 64.7779 88.6754C56.7433 91.9895 47.9072 92.8499 39.3841 91.148C30.8611 89.4461 23.033 85.2582 16.8873 79.1125C10.7417 72.9668 6.55372 65.1387 4.85183 56.6157C3.14994 48.0927 4.01032 39.2565 7.32445 31.2219C10.6386 23.1873 16.258 16.3141 23.4738 11.4695C30.6896 6.62484 39.1786 4.02572 47.8698 4H47.9998C49.0598 4 50.1098 4 51.1598 4.12C52.8784 4.2403 54.5882 4.46404 56.2798 4.79C59.0504 5.31492 61.7633 6.10867 64.3798 7.16C69.8708 9.3682 74.8615 12.6583 79.055 16.8347C83.2485 21.011 86.5591 25.9881 88.7898 31.47C89.8715 34.1291 90.6855 36.8894 91.2198 39.71C91.5451 41.4186 91.7689 43.1449 91.8898 44.88C91.9998 45.92 91.9998 47 91.9998 48Z" fill="#1048C9"/>
<path d="M90.9994 44.5V44.62C90.9816 52.4306 88.6503 60.0609 84.2999 66.5477C79.9494 73.0346 73.7748 78.0873 66.5553 81.0681C59.3358 84.0488 51.3951 84.8241 43.7355 83.2959C36.0758 81.7678 29.0405 78.0048 23.5175 72.4818C17.9946 66.9589 14.2316 59.9236 12.7034 52.2639C11.1753 44.6042 11.9505 36.6635 14.9313 29.4441C17.9121 22.2246 22.9648 16.0499 29.4516 11.6995C35.9385 7.34905 43.5688 5.0178 51.3794 5H51.4994C52.4994 5 53.3894 5 54.3394 5.11C55.88 5.21747 57.4128 5.41783 58.9294 5.71C60.7784 6.0623 62.5997 6.54687 64.3794 7.16C69.8703 9.3682 74.8611 12.6583 79.0546 16.8347C83.2481 21.011 86.5586 25.9881 88.7894 31.47C89.4329 33.2926 89.9377 35.1613 90.2994 37.06C90.5915 38.5934 90.7919 40.1428 90.8994 41.7C90.9994 42.63 90.9994 43.57 90.9994 44.5Z" fill="#1769FF"/>
<path d="M74.6602 21.9299C75.7336 23.0386 76.7356 24.2143 77.6602 25.4499" stroke="white" stroke-width="3" stroke-linecap="round" stroke-linejoin="round"/>
<path d="M58 12C62.23 13.225 66.2156 15.1738 69.78 17.76" stroke="white" stroke-width="3" stroke-linecap="round" stroke-linejoin="round"/>
<path d="M44.5598 46.88C45.6279 46.3514 46.5174 45.5211 47.1182 44.4919C47.719 43.4628 48.0047 42.2799 47.9398 41.09C47.9398 36.5 43.9398 35.21 38.8198 35.21H27.7598V60.77H38.8198C38.8198 60.77 49.1198 61.56 49.1198 53.47C49.1198 49.27 46.7898 47.57 44.5598 46.88ZM38.8198 39.59C38.8198 39.59 42.4698 39.24 42.4698 42.8C42.4706 43.4805 42.2181 44.137 41.7616 44.6416C41.305 45.1462 40.677 45.4629 39.9998 45.53H33.3498V39.59H38.8198ZM38.8198 56.39H33.3498V49.39H39.9998C40.4712 49.3987 40.9361 49.5023 41.3666 49.6946C41.7971 49.8869 42.1845 50.164 42.5056 50.5094C42.8266 50.8547 43.0748 51.2612 43.2353 51.7046C43.3958 52.148 43.4654 52.6191 43.4398 53.09C43.4698 56.71 38.8198 56.39 38.8198 56.39Z" fill="white"/>
<path d="M59.1196 56.94C54.8296 56.94 54.9096 52.2401 54.9096 52.2401H68.2396C68.2396 46.0601 65.6496 41.3 59.1196 41.3C52.5896 41.3 49.8496 46.8901 49.8496 50.6501C49.8496 54.4101 51.3196 60.7901 59.1196 60.7901C66.9196 60.7901 67.9096 54.5601 67.9096 54.5601H63.4696C63.4696 54.5601 62.8096 56.94 59.1196 56.94ZM58.9996 45.14C59.5266 45.1254 60.0513 45.2151 60.5435 45.404C61.0357 45.5928 61.4857 45.8771 61.8676 46.2404C62.2496 46.6038 62.5559 47.0391 62.7691 47.5213C62.9822 48.0034 63.098 48.523 63.1096 49.05H54.9096C54.9213 48.5247 55.0364 48.0068 55.2483 47.526C55.4602 47.0452 55.7647 46.6108 56.1445 46.2477C56.5244 45.8846 56.972 45.5999 57.4619 45.4098C57.9518 45.2198 58.4743 45.1281 58.9996 45.14Z" fill="white"/>
<path d="M64.32 36.47H54V39.38H64.32V36.47Z" fill="white"/>
</svg>
